PathFileType	4	(X/Y/Z)	s06c0302.trc
DataRate	CameraRate	NumFrames	NumMarkers	Units	OrigDataRate	OrigDataStartFrame	OrigNumFrames
200	200	4	48	mm	200	1750	2000
Frame#	Time	racr			lacr			c7			jug			rlel			rdr			llel			ldr			s2			lic			ric			lasi			rasi			rpsi			lpsi			rgt			lgt			rth1			rth2			rth3			rth4			rlfc			rmfc			rsh1			rsh2			rsh3			rsh4			rlmal			rcal			rtoe			rmt5			lth1			lth2			lth4			lth3			llfc			lmfc			llmal			lcal			lmt5			lsh1			lsh2			lsh3			lsh4			ltoe			SBIKE			LBIKE			RBIKE			
		X1	Y1	Z1	X2	Y2	Z2	X3	Y3	Z3	X4	Y4	Z4	X5	Y5	Z5	X6	Y6	Z6	X7	Y7	Z7	X8	Y8	Z8	X9	Y9	Z9	X10	Y10	Z10	X11	Y11	Z11	X12	Y12	Z12	X13	Y13	Z13	X14	Y14	Z14	X15	Y15	Z15	X16	Y16	Z16	X17	Y17	Z17	X18	Y18	Z18	X19	Y19	Z19	X20	Y20	Z20	X21	Y21	Z21	X22	Y22	Z22	X23	Y23	Z23	X24	Y24	Z24	X25	Y25	Z25	X26	Y26	Z26	X27	Y27	Z27	X28	Y28	Z28	X29	Y29	Z29	X30	Y30	Z30	X31	Y31	Z31	X32	Y32	Z32	X33	Y33	Z33	X34	Y34	Z34	X35	Y35	Z35	X36	Y36	Z36	X37	Y37	Z37	X38	Y38	Z38	X39	Y39	Z39	X40	Y40	Z40	X41	Y41	Z41	X42	Y42	Z42	X43	Y43	Z43	X44	Y44	Z44	X45	Y45	Z45	X46	Y46	Z46	X47	Y47	Z47	X48	Y48	Z48	
1750	8.7500	460.053437	1331.652058	-77.034773	483.875211	1343.725698	-378.777922	460.081287	1405.897018	-229.185379	464.506349	1246.571055	-226.281875	537.350266	1096.462932	14.132532	716.883132	921.162976	-45.159667	540.171022	1094.013489	-466.424875	711.562275	919.926682	-399.833520	-58.103943	1147.314559	-209.799245	97.612902	1121.759678	-386.848718	107.716462	1104.042668	-49.580829	107.957574	1077.311968	-347.533543	134.028264	1056.253204	-85.102869	-24.286468	1180.540947	-176.295555	-29.073559	1183.867536	-235.520068	59.631580	1016.591096	-21.548549	65.349123	1082.783157	-409.395220	137.928513	908.308198	-2.479227	202.120763	844.147824	-6.179275	226.457796	761.085067	-13.155050	231.719283	863.928572	-19.088894	252.543763	660.548289	-33.519700	245.704411	640.136926	-144.009968	195.218006	551.440223	-11.989335	170.476531	470.279113	-34.711113	110.392103	407.192200	-39.837225	192.414985	462.800000	-67.970343	61.077826	347.259931	-49.953881	2.350470	364.563644	-102.142827	185.504781	157.406964	-91.036802	100.390992	213.393804	-25.655932	140.574454	1002.090444	-424.285779	226.422341	985.279781	-423.148676	242.481845	1016.102264	-407.856464	293.517913	925.949191	-424.640375	368.307339	836.353813	-399.773063	376.279439	818.504190	-285.657980	224.799293	491.826466	-379.340326	154.919130	455.329779	-330.660590	351.079886	441.120047	-406.143541	333.707309	732.300531	-418.142335	319.885822	649.041165	-395.654290	266.460707	577.999468	-392.903801	342.833285	644.968788	-364.256031	435.122739	458.692298	-346.224587	-204.454611	865.464842	-211.717915	-50.722087	79.809517	-411.110345	-50.467108	80.121537	-13.852458	
1751	8.7550	459.423229	1331.224482	-76.756049	483.364569	1343.539351	-378.820471	459.461817	1405.311255	-229.012779	464.018065	1246.017571	-226.307454	536.967706	1095.931764	14.260206	716.848643	921.161242	-45.078364	539.896801	1093.701626	-466.063445	711.551358	919.935605	-399.796533	-58.431318	1145.883722	-210.306645	97.831951	1120.413040	-387.670073	107.333987	1103.198632	-49.800249	108.258402	1076.160042	-348.174464	133.886238	1055.307470	-85.275687	-24.652282	1179.412679	-177.010594	-29.388456	1182.728360	-236.287318	59.555438	1015.903113	-22.020507	65.571292	1081.033121	-410.272054	138.080055	907.796151	-2.726723	202.463636	843.801970	-6.337634	226.991016	760.722429	-13.199690	232.009464	863.601295	-19.131322	253.541505	660.462842	-33.286201	246.789867	639.924383	-143.808329	196.382911	551.269570	-11.887604	171.323482	470.161896	-34.716987	111.205644	407.215024	-39.741865	193.259904	462.742874	-67.961111	61.392735	347.640591	-49.796949	2.687605	365.155051	-102.085291	185.164083	157.398534	-91.016606	100.214692	213.661284	-25.616188	140.714891	1000.318751	-424.724905	226.517081	983.520780	-423.588132	242.638182	1014.399131	-408.485277	293.619192	924.165646	-424.799485	368.300565	834.808526	-399.886625	376.245172	817.161659	-285.873463	224.475439	490.622455	-379.307519	154.799720	453.765814	-330.564945	351.042259	440.642636	-406.247647	333.589217	730.945776	-418.209932	319.657642	647.667916	-395.745934	266.203364	576.717033	-392.960051	342.541609	643.647039	-364.301030	434.998928	458.724917	-346.341670	-204.504394	865.421365	-211.743764	-50.716727	79.772474	-411.107631	-50.437425	79.705559	-14.245802	
1752	8.7600	458.779138	1330.880467	-76.518810	482.837536	1343.352017	-378.852042	458.945424	1404.877033	-229.038471	463.574123	1245.473275	-226.293956	536.554001	1095.516534	14.373050	716.963064	920.994996	-44.813865	539.562921	1093.413548	-465.751547	711.578340	919.957454	-399.778697	-58.563038	1144.745484	-210.742634	98.072644	1119.032468	-388.491321	106.796159	1102.327550	-50.110105	108.437883	1074.909357	-348.851801	133.781619	1054.472554	-85.606291	-24.928658	1178.406312	-177.885837	-29.646544	1181.710909	-237.112263	59.450435	1015.200323	-22.573899	65.809058	1079.498822	-411.097205	138.128479	907.289827	-3.017580	202.767452	843.517949	-6.507511	227.477850	760.352337	-13.268951	232.273189	863.388353	-19.220089	254.453550	660.358964	-33.124378	247.783964	639.768489	-143.653832	197.532002	551.040941	-11.773035	172.281019	469.972586	-34.646163	111.954232	407.161509	-39.680748	193.996473	462.626965	-68.099041	61.731509	347.924828	-49.641747	3.007783	365.742035	-102.033668	184.864839	157.361162	-90.985535	100.108935	213.886442	-25.580349	140.852649	998.826300	-425.253196	226.660361	981.928303	-424.055599	242.798023	1012.897291	-409.144150	293.720653	922.522047	-425.019230	368.262781	833.489698	-400.040223	376.184981	816.002286	-286.035960	224.214401	489.544496	-379.345145	154.698340	452.410867	-330.489933	350.952716	439.992365	-406.059483	333.426821	729.738492	-418.240686	319.467475	646.545384	-395.797079	265.927394	575.542622	-393.083017	342.328337	642.404048	-364.319948	434.894652	458.762665	-346.470466	-204.535649	865.390010	-211.765956	-50.719823	79.741004	-411.120168	-50.422005	79.675724	-14.231307	
1753	8.7650	458.185894	1330.556143	-76.253943	482.439097	1343.248562	-378.894022	458.300655	1404.274404	-228.855842	463.173614	1245.011132	-226.244662	536.096392	1095.257767	14.530778	716.944074	920.953687	-44.770817	539.200677	1093.162647	-465.564757	711.598524	919.946121	-399.752883	-58.686611	1143.937810	-211.442103	98.319285	1117.774204	-389.253309	106.437367	1101.443259	-50.374672	108.589451	1073.761554	-349.483457	134.439680	1054.767020	-84.933192	-25.203239	1177.517853	-178.618700	-29.925139	1180.765746	-237.970940	59.332653	1014.419327	-23.141143	66.017823	1078.145160	-411.829312	138.171912	906.778094	-3.318029	203.027591	843.287600	-6.675227	227.920675	760.070916	-13.267789	232.474181	863.232083	-19.341681	255.279048	660.141758	-33.014915	248.708526	639.550803	-143.447859	198.682908	550.675361	-11.567711	173.054004	469.640889	-34.691151	112.742741	407.057850	-39.611092	194.718605	462.565406	-68.177286	61.995403	348.200180	-49.549807	3.252838	366.189536	-101.983592	184.577326	157.377825	-90.983941	99.973879	214.085264	-25.584913	141.004419	997.483805	-425.740340	226.788701	980.493147	-424.573579	243.004106	1011.539611	-409.827394	293.775960	921.066074	-425.286383	368.291390	832.336066	-400.172383	376.092904	814.939147	-286.230178	224.007442	488.593485	-379.281446	154.654578	451.166113	-330.352571	350.905453	439.821883	-406.347669	333.302322	728.757660	-418.342027	319.327949	645.506641	-395.903369	265.731034	574.533904	-393.165739	342.142315	641.433418	-364.420514	434.807781	458.764688	-346.592220	-204.553322	865.354475	-211.809138	-50.727168	79.730592	-411.120725	-50.435711	79.656229	-14.260657	
